# xmcd
#
# Track frame offsets:
#	150
#	14082
#	33921
#	64860
#	82336
#	95927
#	115713
#	128314
#	148528
#	166079
#	188146
#	205759
#	217723
#	232725
#	254627
#	269104
#	291904
#	312177
#
# Disc length: 4356 seconds
#
# Revision: 2
# Processed by: cddbd v1.5.1PL2 Copyright (c) Steve Scherf et al.
# Submitted via: audiograbber 1.83.01
#
DISCID=06110212
DTITLE=Various Artist - Romantic Collection Vol.4
DYEAR=1999
DGENRE=Blues
TTITLE0=The Sound of Silence
TTITLE1=Happy New Year
TTITLE2=Jesus to Child
TTITLE3=My All
TTITLE4=Tombe la Neige
TTITLE5=The Lonely Shepherd
TTITLE6=Because
TTITLE7=Unbreak my Heart
TTITLE8=Fragile
TTITLE9=Protourize Planinata
TTITLE10=Bensonhurst Blues
TTITLE11=La Raggazia di Blue
TTITLE12=Su di noi
TTITLE13=And I Think of You
TTITLE14=Boat on the River
TTITLE15=7 Second
TTITLE16=Cose della Vita
TTITLE17=The Sound of Silence
EXTD=
EXTT0=
EXTT1=
EXTT2=
EXTT3=
EXTT4=
EXTT5=
EXTT6=
EXTT7=
EXTT8=
EXTT9=
EXTT10=
EXTT11=
EXTT12=
EXTT13=
EXTT14=
EXTT15=
EXTT16=
EXTT17=
PLAYORDER=
